<svg xmlns="http://www.w3.org/2000/svg" version="1.1" xmlns:xlink="http://www.w3.org/1999/xlink" width="512" height="512" x="0" y="0" viewBox="0 0 682.667 682.667" style="enable-background:new 0 0 512 512" xml:space="preserve" class=""><g><defs><clipPath id="a" clipPathUnits="userSpaceOnUse"><path d="M0 512h512V0H0Z" fill="#000000" opacity="1" data-original="#000000" class=""></path></clipPath></defs><g clip-path="url(#a)" transform="matrix(1.33333 0 0 -1.33333 0 682.667)"><path d="M0 0c-62.673 0-121.376 8.777-165.296 24.716C-202.739 38.303-226 56.596-226 72.455c0 15.859 23.261 34.152 60.704 47.739 19.398 7.04 41.681 12.682 65.914 16.788-2.026-20.76-3.072-42.36-3.072-64.375 0-11.487.289-23.031.86-34.312.418-8.274 7.454-14.677 15.739-14.223 8.273.418 14.641 7.465 14.222 15.739a652.412 652.412 0 0 0-.821 32.796c0 23.633 1.248 46.702 3.658 68.626 21.975 2.422 45.102 3.677 68.796 3.677 7.774 0 15.608-.139 23.284-.412 8.282-.291 15.23 6.176 15.525 14.456.295 8.278-6.177 15.23-14.456 15.525-8.031.286-16.224.431-24.353.431-22.078 0-43.739-1.052-64.555-3.09 4.109 24.299 9.76 46.641 16.816 66.083 13.588 37.444 31.88 60.704 47.739 60.704 15.859 0 34.152-23.26 47.74-60.704 15.938-43.92 24.715-102.623 24.715-165.296 0-23.744-1.26-46.918-3.691-68.934C46.798 1.254 23.683 0 0 0m220.73 126.861c-10.273 7.053-22.748 13.551-37.007 19.322l4.15 1.403c7.849 2.653 12.06 11.166 9.406 19.014-2.653 7.849-11.172 12.056-19.013 9.406l-47.367-16.014a15.001 15.001 0 0 1-7.492-22.801l28.637-40.987c2.917-4.176 7.575-6.41 12.309-6.41 2.966 0 5.962.877 8.578 2.705 6.791 4.744 8.45 14.096 3.705 20.887l-3.238 4.634c11.794-4.829 22.018-10.168 30.353-15.891C218.099 92.279 226 81.741 226 72.455c0-15.859-23.261-34.152-60.704-47.739-19.405-7.042-41.698-12.687-65.943-16.793 2.046 20.855 3.102 42.56 3.102 64.684 0 66.075-9.416 128.413-26.515 175.53-8.651 23.841-18.918 42.782-30.514 56.299C35.965 315.463 20.404 328.607 0 328.607c-20.404 0-35.965-13.144-45.426-24.171-11.596-13.517-21.863-32.458-30.513-56.299-8.503-23.431-15.106-50.626-19.596-80.173-29.478-4.489-56.611-11.083-79.994-19.568-23.841-8.652-42.783-18.918-56.299-30.515C-242.855 108.42-256 92.859-256 72.455c0-20.404 13.145-35.965 24.172-45.426 13.516-11.596 32.458-21.863 56.299-30.514C-128.412-20.584-66.074-30 0-30c22.061 0 43.704 1.05 64.504 3.084-4.105-24.179-9.738-46.412-16.764-65.772C34.152-130.132 15.859-153.393 0-153.393c-9.118 0-19.59 8.24-29.485 23.201-5.553 8.395-10.76 18.61-15.501 30.34l3.193-2.353c6.666-4.913 16.059-3.495 20.975 3.174 4.915 6.668 3.494 16.058-3.174 20.974l-40.246 29.668a15.001 15.001 0 0 1-22.984-6.91l-17.213-46.943c-2.851-7.779 1.142-16.396 8.919-19.247a14.967 14.967 0 0 1 5.163-.921c6.114 0 11.857 3.765 14.084 9.84l1.925 5.249C-55.498-156.197-29.367-183.393 0-183.393c20.404 0 35.965 13.145 45.426 24.172 11.596 13.517 21.863 32.458 30.514 56.299C84.414-79.573 91-52.487 95.488-23.061c29.496 4.49 56.645 11.085 80.041 19.576 23.841 8.651 42.783 18.918 56.299 30.514C242.855 36.49 256 52.051 256 72.455c0 13.774-6.119 34.395-35.27 54.406" style="fill-opacity:1;fill-rule:nonzero;stroke:none" transform="translate(256 183.393)" fill="#000000" data-original="#000000" class=""></path></g></g></svg>