<svg xmlns="http://www.w3.org/2000/svg" version="1.1" xmlns:xlink="http://www.w3.org/1999/xlink" width="512" height="512" x="0" y="0" viewBox="0 0 24 24" style="enable-background:new 0 0 512 512" xml:space="preserve" class=""><g><path d="m22.278 5.304-10-4a.751.751 0 0 0-.556 0l-10 4A.75.75 0 0 0 1.25 6v14a.75.75 0 0 0 .603.735l10 2a.755.755 0 0 0 .294 0l10-2A.75.75 0 0 0 22.75 20V6a.75.75 0 0 0-.472-.696zM21.25 11.7l-.25-.1v2l.25.1v5.685L12 21.235l-9.25-1.85V13.7l.25-.1v-2l-.25.1v-1.192l9.25-3.7 9.25 3.7zm0-2.808-8.972-3.588a.751.751 0 0 0-.556 0L2.75 8.892V6.508l9.25-3.7 9.25 3.7zM7 10.738v.923a.5.5 0 0 1-.314.465l-1 .4A.5.5 0 0 1 5 12.06v-.923a.5.5 0 0 1 .314-.464l1-.4a.5.5 0 0 1 .686.464zm10 .923v-.923a.5.5 0 0 1 .686-.464l1 .4a.5.5 0 0 1 .314.464v.923a.5.5 0 0 1-.686.465l-1-.4A.5.5 0 0 1 17 11.66zm-4-1.6v-.923a.5.5 0 0 1 .686-.464l1 .4a.5.5 0 0 1 .314.464v.923a.5.5 0 0 1-.686.465l-1-.4A.5.5 0 0 1 13 10.06zm-2-.923v.923a.5.5 0 0 1-.314.465l-1 .4A.5.5 0 0 1 9 10.46v-.923a.5.5 0 0 1 .314-.464l1-.4a.5.5 0 0 1 .686.464z" fill="#000000" opacity="1" data-original="#000000" class=""></path></g></svg>