<svg xmlns="http://www.w3.org/2000/svg" version="1.1" xmlns:xlink="http://www.w3.org/1999/xlink" width="512" height="512" x="0" y="0" viewBox="0 0 512 512" style="enable-background:new 0 0 512 512" xml:space="preserve" class=""><g><path d="M151.6 345.083a21.063 21.063 0 0 1 21.039 21.039v72.926h-42.076v-72.926a21.064 21.064 0 0 1 21.037-21.039zm83.381 21.039v72.926h42.078v-72.926a21.039 21.039 0 1 0-42.078 0zM78.563 64.786a18.812 18.812 0 1 0-37.623 0v183.631h37.623zm9 197.631H31.945v176.631h55.614zM22.965 466.026h466.07a6.489 6.489 0 0 0 0-12.978H22.965a6.489 6.489 0 1 0 0 12.978zm316.44-99.9v72.926h42.077v-72.93a21.039 21.039 0 1 0-42.077 0zm-222.842 0a35.04 35.04 0 0 1 70.079 0v72.926h34.342v-72.93a35.039 35.039 0 1 1 70.078 0v72.926H325.4v-72.926a35.039 35.039 0 1 1 70.077 0v72.926h16.94V274.664H101.559v164.384h15zm365.472-103.709h-55.613v176.631h55.613zm-9-197.631a18.812 18.812 0 1 0-37.623 0v183.631h37.628zM256.023 142.2a125.617 125.617 0 0 0-125.261 118.46h250.522A125.616 125.616 0 0 0 256.023 142.2zm34.477-41.348A28.039 28.039 0 1 1 250.842 61.2c.038-.039.079-.075.119-.113a34.807 34.807 0 1 0 39.646 39.647 2.854 2.854 0 0 0-.107.118z" fill="#000000" opacity="1" data-original="#000000"></path></g></svg>