<svg xmlns="http://www.w3.org/2000/svg" version="1.1" xmlns:xlink="http://www.w3.org/1999/xlink" width="512" height="512" x="0" y="0" viewBox="0 0 512 512" style="enable-background:new 0 0 512 512" xml:space="preserve" class=""><g><path d="M256 156.987c8.284 0 15-6.716 15-15V73.693c0-8.284-6.716-15-15-15s-15 6.716-15 15v68.294c0 8.284 6.716 15 15 15zM497 299.693h-68.294c-8.284 0-15 6.716-15 15s6.716 15 15 15H497c8.284 0 15-6.716 15-15s-6.716-15-15-15zM98.294 314.693c0-8.284-6.716-15-15-15H15c-8.284 0-15 6.716-15 15s6.716 15 15 15h68.294c8.284 0 15-6.716 15-15zM395.924 190.603c3.838 0 7.678-1.465 10.606-4.394l36.853-36.852c5.858-5.857 5.858-15.355 0-21.213-5.856-5.858-15.354-5.858-21.213 0l-36.853 36.852c-5.858 5.857-5.858 15.355 0 21.213a14.954 14.954 0 0 0 10.607 4.394zM105.469 186.209c2.929 2.929 6.768 4.394 10.606 4.394s7.678-1.464 10.606-4.394c5.858-5.858 5.858-15.355 0-21.213l-36.853-36.852c-5.857-5.858-15.355-5.858-21.213 0s-5.858 15.355 0 21.213z" fill="#000000" opacity="1" data-original="#000000" class=""></path><path d="M441.134 364.742h-65.686c6.605-15.733 10.051-32.671 10.051-50.049 0-71.406-58.093-129.5-129.499-129.5s-129.5 58.093-129.5 129.5c0 17.379 3.446 34.317 10.051 50.049H70.866c-8.284 0-15 6.716-15 15s6.716 15 15 15h370.267c8.284 0 15-6.716 15-15s-6.715-15-14.999-15zM350.229 423.307H161.77c-8.284 0-15 6.716-15 15s6.716 15 15 15h188.46c8.284 0 15-6.716 15-15s-6.716-15-15.001-15z" fill="#000000" opacity="1" data-original="#000000" class=""></path></g></svg>